<svg width="26" height="26" viewBox="0 0 26 26" fill="none" xmlns="http://www.w3.org/2000/svg">
<path d="M23.8332 11.9165H19.3157L22.8257 8.4065L21.2982 6.86817L16.2498 11.9165H14.0832V9.74984L19.1315 4.7015L17.5932 3.174L14.0832 6.684V2.1665H11.9165V6.684L8.4065 3.174L6.86817 4.7015L11.9165 9.74984V11.9165H9.74984L4.7015 6.86817L3.174 8.4065L6.684 11.9165H2.1665V14.0832H6.684L3.174 17.5932L4.7015 19.1315L9.74984 14.0832H11.9165V16.2498L6.86817 21.2982L8.4065 22.8257L11.9165 19.3157V23.8332H14.0832V19.3157L17.5932 22.8257L19.1315 21.2982L14.0832 16.2498V14.0832H16.2498L21.2982 19.1315L22.8257 17.5932L19.3157 14.0832H23.8332V11.9165Z" fill="black"/>
</svg>
