<svg width="26" height="26" viewBox="0 0 26 26" fill="none" xmlns="http://www.w3.org/2000/svg">
<path d="M21.125 3.25H4.875C4.44402 3.25 4.0307 3.4212 3.72595 3.72595C3.4212 4.0307 3.25 4.44402 3.25 4.875V22.75C3.25 22.9655 3.3356 23.1722 3.48798 23.3245C3.64035 23.4769 3.84701 23.5625 4.0625 23.5625C4.27799 23.5625 4.48465 23.4769 4.63702 23.3245C4.7894 23.1722 4.875 22.9655 4.875 22.75V21.125H12.1875V22.75C12.1875 22.9655 12.2731 23.1722 12.4255 23.3245C12.5778 23.4769 12.7845 23.5625 13 23.5625C13.2155 23.5625 13.4222 23.4769 13.5745 23.3245C13.7269 23.1722 13.8125 22.9655 13.8125 22.75V21.125H21.125V22.75C21.125 22.9655 21.2106 23.1722 21.363 23.3245C21.5153 23.4769 21.722 23.5625 21.9375 23.5625C22.153 23.5625 22.3597 23.4769 22.512 23.3245C22.6644 23.1722 22.75 22.9655 22.75 22.75V4.875C22.75 4.44402 22.5788 4.0307 22.274 3.72595C21.9693 3.4212 21.556 3.25 21.125 3.25ZM9.75 11.375H5.6875C5.47201 11.375 5.26535 11.2894 5.11298 11.137C4.9606 10.9847 4.875 10.778 4.875 10.5625C4.875 10.347 4.9606 10.1403 5.11298 9.98798C5.26535 9.8356 5.47201 9.75 5.6875 9.75H9.75C9.96549 9.75 10.1722 9.8356 10.3245 9.98798C10.4769 10.1403 10.5625 10.347 10.5625 10.5625C10.5625 10.778 10.4769 10.9847 10.3245 11.137C10.1722 11.2894 9.96549 11.375 9.75 11.375ZM9.75 8.125H5.6875C5.47201 8.125 5.26535 8.0394 5.11298 7.88702C4.9606 7.73465 4.875 7.52799 4.875 7.3125C4.875 7.09701 4.9606 6.89035 5.11298 6.73798C5.26535 6.5856 5.47201 6.5 5.6875 6.5H9.75C9.96549 6.5 10.1722 6.5856 10.3245 6.73798C10.4769 6.89035 10.5625 7.09701 10.5625 7.3125C10.5625 7.52799 10.4769 7.73465 10.3245 7.88702C10.1722 8.0394 9.96549 8.125 9.75 8.125ZM13.8125 18.6875C13.8125 18.903 13.7269 19.1097 13.5745 19.262C13.4222 19.4144 13.2155 19.5 13 19.5C12.7845 19.5 12.5778 19.4144 12.4255 19.262C12.2731 19.1097 12.1875 18.903 12.1875 18.6875V5.6875C12.1875 5.47201 12.2731 5.26535 12.4255 5.11298C12.5778 4.9606 12.7845 4.875 13 4.875C13.2155 4.875 13.4222 4.9606 13.5745 5.11298C13.7269 5.26535 13.8125 5.47201 13.8125 5.6875V18.6875ZM20.3125 11.375H16.25C16.0345 11.375 15.8278 11.2894 15.6755 11.137C15.5231 10.9847 15.4375 10.778 15.4375 10.5625C15.4375 10.347 15.5231 10.1403 15.6755 9.98798C15.8278 9.8356 16.0345 9.75 16.25 9.75H20.3125C20.528 9.75 20.7347 9.8356 20.887 9.98798C21.0394 10.1403 21.125 10.347 21.125 10.5625C21.125 10.778 21.0394 10.9847 20.887 11.137C20.7347 11.2894 20.528 11.375 20.3125 11.375ZM20.3125 8.125H16.25C16.0345 8.125 15.8278 8.0394 15.6755 7.88702C15.5231 7.73465 15.4375 7.52799 15.4375 7.3125C15.4375 7.09701 15.5231 6.89035 15.6755 6.73798C15.8278 6.5856 16.0345 6.5 16.25 6.5H20.3125C20.528 6.5 20.7347 6.5856 20.887 6.73798C21.0394 6.89035 21.125 7.09701 21.125 7.3125C21.125 7.52799 21.0394 7.73465 20.887 7.88702C20.7347 8.0394 20.528 8.125 20.3125 8.125Z" fill="black"/>
</svg>
