<svg width="28" height="28" viewBox="0 0 28 28" fill="none" xmlns="http://www.w3.org/2000/svg">
<path d="M12.6585 2.3335L10.7102 5.25016L12.0402 6.12516L8.33016 11.6668H8.16683C7.54799 11.6668 6.9545 11.9127 6.51691 12.3502C6.07933 12.7878 5.8335 13.3813 5.8335 14.0002C5.83494 14.5328 6.01857 15.0489 6.3539 15.4628C6.68923 15.8766 7.15605 16.1633 7.67683 16.2752L12.3902 23.3335H8.16683V25.6668H19.8335V23.3335H15.1668L9.95183 15.4935C10.3039 15.0753 10.498 14.5468 10.5002 14.0002C10.5002 13.6502 10.4185 13.3002 10.2668 12.9852L14.0002 7.43183C13.7435 9.39183 14.8752 11.5385 16.8585 12.8335L22.0385 5.0985C20.0668 3.78016 17.6402 3.54683 15.9252 4.51516L12.6585 2.3335ZM21.3852 8.16683L19.4485 11.0835C20.2418 11.6085 21.3385 11.3985 21.8752 10.5935C22.4118 9.7885 22.1668 8.7035 21.3852 8.16683Z" fill="black"/>
</svg>
