<svg width="24" height="24" viewBox="0 0 24 24" fill="none" xmlns="http://www.w3.org/2000/svg">
<path d="M6.99984 12V13H16.9998V12C16.9998 11.2056 17.3149 10.4436 17.876 9.88115C18.4371 9.31874 19.1984 9.00185 19.9928 9C19.9918 8.73848 19.9683 8.47753 19.9228 8.22C19.7685 7.44401 19.3875 6.73121 18.8281 6.17175C18.2686 5.6123 17.5558 5.23132 16.7798 5.077C16.3938 5 15.9298 5 14.9998 5H8.99984C8.06984 5 7.60584 5 7.21984 5.077C6.44384 5.23132 5.73104 5.6123 5.17159 6.17175C4.61213 6.73121 4.23115 7.44401 4.07684 8.22C4.03131 8.47753 4.0079 8.73848 4.00684 9C4.80127 9.00185 5.56254 9.31874 6.12363 9.88115C6.68473 10.4436 6.99984 11.2056 6.99984 12Z" fill="black"/>
<path d="M18.444 18H5.556C5.28471 18.0001 5.0143 17.9692 4.75 17.908V19C4.75 19.1989 4.67098 19.3897 4.53033 19.5303C4.38968 19.671 4.19891 19.75 4 19.75C3.80109 19.75 3.61032 19.671 3.46967 19.5303C3.32902 19.3897 3.25 19.1989 3.25 19V17.151C2.85771 16.8175 2.54269 16.4026 2.32684 15.9352C2.11098 15.4677 1.99946 14.9589 2 14.444V12C2 11.4696 2.21072 10.9609 2.58579 10.5858C2.96086 10.2107 3.46957 10 4 10C4.53043 10 5.03914 10.2107 5.41422 10.5858C5.78929 10.9609 6 11.4696 6 12V13.2C6 13.4122 6.08429 13.6157 6.23432 13.7657C6.38435 13.9157 6.58783 14 6.8 14H17.2C17.4122 14 17.6157 13.9157 17.7657 13.7657C17.9157 13.6157 18 13.4122 18 13.2V12C18 11.4696 18.2107 10.9609 18.5858 10.5858C18.9609 10.2107 19.4696 10 20 10C20.5304 10 21.0391 10.2107 21.4142 10.5858C21.7893 10.9609 22 11.4696 22 12V14.444C22.0005 14.9589 21.889 15.4677 21.6732 15.9352C21.4573 16.4026 21.1423 16.8175 20.75 17.151V19C20.75 19.1989 20.671 19.3897 20.5303 19.5303C20.3897 19.671 20.1989 19.75 20 19.75C19.8011 19.75 19.6103 19.671 19.4697 19.5303C19.329 19.3897 19.25 19.1989 19.25 19V17.908C18.9857 17.9692 18.7153 18.0001 18.444 18Z" fill="black"/>
</svg>
