<svg width="30" height="30" viewBox="0 0 30 30" fill="none" xmlns="http://www.w3.org/2000/svg">
<path d="M4.00049 15V24.2629C4.00049 24.57 4.12248 24.8645 4.33962 25.0816C4.55676 25.2988 4.85127 25.4207 5.15835 25.4207H24.842C25.1491 25.4207 25.4436 25.2988 25.6607 25.0816C25.8779 24.8645 25.9998 24.57 25.9998 24.2629V15M25.9998 19.0525H4.00049" stroke="black" stroke-width="2" stroke-linecap="round" stroke-linejoin="round"/>
<path d="M19.632 14.4215C19.632 13.1931 19.1441 12.0151 18.2755 11.1466C17.4069 10.278 16.2289 9.79004 15.0006 9.79004C13.7722 9.79004 12.5942 10.278 11.7257 11.1466C10.8571 12.0151 10.3691 13.1931 10.3691 14.4215" stroke="black" stroke-width="2" stroke-linecap="round"/>
<path d="M15.0004 4.57959V5.73745M21.6083 6.89531L20.7897 7.71392M8.05322 6.89531L8.87183 7.71392" stroke="black" stroke-width="2" stroke-linecap="round" stroke-linejoin="round"/>
</svg>
