<svg width="16" height="26" viewBox="0 0 16 26" fill="none" xmlns="http://www.w3.org/2000/svg">
<path d="M6.0001 0H10.0001C10.6651 0 11.2001 0.543359 11.2001 1.21875V3.25H4.8001V1.21875C4.8001 0.543359 5.3351 0 6.0001 0ZM1.6001 7.70352C1.6001 6.91133 2.0501 6.19023 2.7601 5.85L3.9801 5.27109C4.5301 5.01211 5.1301 4.875 5.7351 4.875H10.2651C10.8701 4.875 11.4701 5.01211 12.0201 5.27109L13.2401 5.85C13.9451 6.18516 14.4001 6.90625 14.4001 7.70352C14.4001 8.43477 14.0251 9.07461 13.4551 9.43516C14.0301 9.88203 14.4001 10.5828 14.4001 11.375C14.4001 12.223 13.9751 12.9695 13.3251 13.4062C13.9701 13.843 14.4001 14.5895 14.4001 15.4375C14.4001 16.2855 13.9751 17.032 13.3251 17.4688C13.9701 17.9055 14.4001 18.652 14.4001 19.5C14.4001 20.348 13.9751 21.0945 13.3251 21.5312C13.9701 21.968 14.4001 22.7145 14.4001 23.5625C14.4001 24.9082 13.3251 26 12.0001 26H4.0001C2.6751 26 1.6001 24.9082 1.6001 23.5625C1.6001 22.7145 2.0251 21.968 2.6751 21.5312C2.0251 21.0945 1.6001 20.348 1.6001 19.5C1.6001 18.652 2.0251 17.9055 2.6751 17.4688C2.0251 17.032 1.6001 16.2855 1.6001 15.4375C1.6001 14.5895 2.0251 13.843 2.6751 13.4062C2.0251 12.9695 1.6001 12.223 1.6001 11.375C1.6001 10.5828 1.9701 9.88203 2.5451 9.43516C1.9751 9.07461 1.6001 8.43477 1.6001 7.70352ZM4.8001 12.1875C4.8001 12.6344 5.1601 13 5.6001 13H10.4001C10.8401 13 11.2001 12.6344 11.2001 12.1875C11.2001 11.7406 10.8401 11.375 10.4001 11.375H5.6001C5.1601 11.375 4.8001 11.7406 4.8001 12.1875ZM5.6001 17.875C5.1601 17.875 4.8001 18.2406 4.8001 18.6875C4.8001 19.1344 5.1601 19.5 5.6001 19.5H10.4001C10.8401 19.5 11.2001 19.1344 11.2001 18.6875C11.2001 18.2406 10.8401 17.875 10.4001 17.875H5.6001Z" fill="black"/>
</svg>
